<mxfile host="app.diagrams.net" modified="2023-12-28T09:55:34.274Z" agent="Mozilla/5.0 (Macintosh; Intel Mac OS X 10_15_7) AppleWebKit/605.1.15 (KHTML, like Gecko) Version/17.1 Safari/605.1.15" etag="zVxThFEJfNuBFNDOPy-Y" version="22.1.15" type="device">
  <diagram name="Page-1" id="chyjRLsChrQyaDLeEmY6">
    <mxGraphModel dx="2074" dy="1083" grid="1" gridSize="10" guides="1" tooltips="1" connect="1" arrows="1" fold="1" page="1" pageScale="1" pageWidth="827" pageHeight="1169" math="0" shadow="0">
      <root>
        <mxCell id="0" />
        <mxCell id="1" parent="0" />
        <mxCell id="Zh25cUM7GFCUlB0kHRxQ-51" style="edgeStyle=orthogonalEdgeStyle;rounded=0;orthogonalLoop=1;jettySize=auto;html=1;exitX=0.5;exitY=1;exitDx=0;exitDy=0;entryX=1;entryY=0.5;entryDx=0;entryDy=0;" parent="1" source="dhNzyn-oJjsVX0k7gvtm-72" target="Zh25cUM7GFCUlB0kHRxQ-52" edge="1">
          <mxGeometry relative="1" as="geometry">
            <mxPoint x="655" y="500" as="targetPoint" />
            <mxPoint x="655" y="420" as="sourcePoint" />
          </mxGeometry>
        </mxCell>
        <mxCell id="Zh25cUM7GFCUlB0kHRxQ-55" style="edgeStyle=orthogonalEdgeStyle;rounded=0;orthogonalLoop=1;jettySize=auto;html=1;exitX=0;exitY=0.5;exitDx=0;exitDy=0;entryX=0;entryY=0.5;entryDx=0;entryDy=0;" parent="1" source="Zh25cUM7GFCUlB0kHRxQ-52" target="Zh25cUM7GFCUlB0kHRxQ-54" edge="1">
          <mxGeometry relative="1" as="geometry" />
        </mxCell>
        <mxCell id="Zh25cUM7GFCUlB0kHRxQ-52" value="Channel" style="whiteSpace=wrap;html=1;" parent="1" vertex="1">
          <mxGeometry x="330" y="430" width="60" height="40" as="geometry" />
        </mxCell>
        <mxCell id="Zh25cUM7GFCUlB0kHRxQ-57" value="" style="edgeStyle=orthogonalEdgeStyle;rounded=0;orthogonalLoop=1;jettySize=auto;html=1;" parent="1" source="Zh25cUM7GFCUlB0kHRxQ-54" target="Zh25cUM7GFCUlB0kHRxQ-56" edge="1">
          <mxGeometry relative="1" as="geometry" />
        </mxCell>
        <mxCell id="Zh25cUM7GFCUlB0kHRxQ-54" value="Downconvert" style="whiteSpace=wrap;html=1;" parent="1" vertex="1">
          <mxGeometry x="110" y="505" width="110" height="40" as="geometry" />
        </mxCell>
        <mxCell id="Zh25cUM7GFCUlB0kHRxQ-62" value="" style="edgeStyle=orthogonalEdgeStyle;rounded=0;orthogonalLoop=1;jettySize=auto;html=1;" parent="1" source="Zh25cUM7GFCUlB0kHRxQ-56" target="Zh25cUM7GFCUlB0kHRxQ-58" edge="1">
          <mxGeometry relative="1" as="geometry" />
        </mxCell>
        <mxCell id="Zh25cUM7GFCUlB0kHRxQ-56" value="LPF" style="whiteSpace=wrap;html=1;" parent="1" vertex="1">
          <mxGeometry x="237.5" y="505" width="40" height="40" as="geometry" />
        </mxCell>
        <mxCell id="Zh25cUM7GFCUlB0kHRxQ-65" style="edgeStyle=orthogonalEdgeStyle;rounded=0;orthogonalLoop=1;jettySize=auto;html=1;exitX=1;exitY=0.5;exitDx=0;exitDy=0;entryX=0;entryY=0.5;entryDx=0;entryDy=0;" parent="1" source="Zh25cUM7GFCUlB0kHRxQ-58" target="Zh25cUM7GFCUlB0kHRxQ-68" edge="1">
          <mxGeometry relative="1" as="geometry">
            <mxPoint x="527.5" y="535" as="targetPoint" />
          </mxGeometry>
        </mxCell>
        <mxCell id="Zh25cUM7GFCUlB0kHRxQ-67" value="Signal w/o Preamble" style="edgeLabel;html=1;align=center;verticalAlign=middle;resizable=0;points=[];" parent="Zh25cUM7GFCUlB0kHRxQ-65" vertex="1" connectable="0">
          <mxGeometry x="-0.1736" relative="1" as="geometry">
            <mxPoint as="offset" />
          </mxGeometry>
        </mxCell>
        <mxCell id="Zh25cUM7GFCUlB0kHRxQ-58" value="Frame Sync" style="whiteSpace=wrap;html=1;" parent="1" vertex="1">
          <mxGeometry x="310" y="505" width="77.5" height="40" as="geometry" />
        </mxCell>
        <mxCell id="Zh25cUM7GFCUlB0kHRxQ-61" style="edgeStyle=orthogonalEdgeStyle;rounded=0;orthogonalLoop=1;jettySize=auto;html=1;exitX=1;exitY=0.5;exitDx=0;exitDy=0;entryX=0.5;entryY=1;entryDx=0;entryDy=0;" parent="1" source="Zh25cUM7GFCUlB0kHRxQ-60" target="Zh25cUM7GFCUlB0kHRxQ-58" edge="1">
          <mxGeometry relative="1" as="geometry" />
        </mxCell>
        <mxCell id="Zh25cUM7GFCUlB0kHRxQ-60" value="Training Bits" style="rounded=0;whiteSpace=wrap;html=1;" parent="1" vertex="1">
          <mxGeometry x="207.5" y="565" width="70" height="40" as="geometry" />
        </mxCell>
        <mxCell id="Zh25cUM7GFCUlB0kHRxQ-71" style="edgeStyle=orthogonalEdgeStyle;rounded=0;orthogonalLoop=1;jettySize=auto;html=1;exitX=0.5;exitY=1;exitDx=0;exitDy=0;entryX=0.5;entryY=0;entryDx=0;entryDy=0;" parent="1" source="Zh25cUM7GFCUlB0kHRxQ-68" target="Zh25cUM7GFCUlB0kHRxQ-73" edge="1">
          <mxGeometry relative="1" as="geometry">
            <mxPoint x="612.5" y="585" as="targetPoint" />
          </mxGeometry>
        </mxCell>
        <mxCell id="Zh25cUM7GFCUlB0kHRxQ-72" value="H" style="edgeLabel;html=1;align=center;verticalAlign=middle;resizable=0;points=[];" parent="Zh25cUM7GFCUlB0kHRxQ-71" vertex="1" connectable="0">
          <mxGeometry x="-0.1771" y="-1" relative="1" as="geometry">
            <mxPoint as="offset" />
          </mxGeometry>
        </mxCell>
        <mxCell id="Zh25cUM7GFCUlB0kHRxQ-68" value="Channel Estimation" style="whiteSpace=wrap;html=1;" parent="1" vertex="1">
          <mxGeometry x="555" y="505" width="115" height="40" as="geometry" />
        </mxCell>
        <mxCell id="Zh25cUM7GFCUlB0kHRxQ-74" style="edgeStyle=orthogonalEdgeStyle;rounded=0;orthogonalLoop=1;jettySize=auto;html=1;exitX=0;exitY=0.5;exitDx=0;exitDy=0;endArrow=none;endFill=0;startArrow=classic;startFill=1;" parent="1" source="Zh25cUM7GFCUlB0kHRxQ-73" edge="1">
          <mxGeometry relative="1" as="geometry">
            <mxPoint x="527.5" y="525" as="targetPoint" />
          </mxGeometry>
        </mxCell>
        <mxCell id="Zh25cUM7GFCUlB0kHRxQ-77" value="" style="edgeStyle=orthogonalEdgeStyle;rounded=0;orthogonalLoop=1;jettySize=auto;html=1;" parent="1" source="Zh25cUM7GFCUlB0kHRxQ-73" target="Zh25cUM7GFCUlB0kHRxQ-76" edge="1">
          <mxGeometry relative="1" as="geometry" />
        </mxCell>
        <mxCell id="Zh25cUM7GFCUlB0kHRxQ-73" value="Channel Correction" style="whiteSpace=wrap;html=1;" parent="1" vertex="1">
          <mxGeometry x="555" y="580" width="115" height="40" as="geometry" />
        </mxCell>
        <mxCell id="Zh25cUM7GFCUlB0kHRxQ-80" style="edgeStyle=orthogonalEdgeStyle;rounded=0;orthogonalLoop=1;jettySize=auto;html=1;exitX=1;exitY=0.5;exitDx=0;exitDy=0;entryX=0;entryY=0.5;entryDx=0;entryDy=0;" parent="1" source="Zh25cUM7GFCUlB0kHRxQ-76" target="Zh25cUM7GFCUlB0kHRxQ-79" edge="1">
          <mxGeometry relative="1" as="geometry" />
        </mxCell>
        <mxCell id="Zh25cUM7GFCUlB0kHRxQ-76" value="Demapping" style="rounded=0;whiteSpace=wrap;html=1;" parent="1" vertex="1">
          <mxGeometry x="577.5" y="640" width="70" height="40" as="geometry" />
        </mxCell>
        <mxCell id="Zh25cUM7GFCUlB0kHRxQ-79" value="RX Data" style="rounded=0;whiteSpace=wrap;html=1;" parent="1" vertex="1">
          <mxGeometry x="720" y="640" width="70" height="40" as="geometry" />
        </mxCell>
        <mxCell id="Zh25cUM7GFCUlB0kHRxQ-83" value="RX" style="text;html=1;align=center;verticalAlign=middle;resizable=0;points=[];autosize=1;strokeColor=none;fillColor=none;" parent="1" vertex="1">
          <mxGeometry x="30" y="655" width="40" height="30" as="geometry" />
        </mxCell>
        <mxCell id="Zh25cUM7GFCUlB0kHRxQ-84" value="" style="rounded=0;whiteSpace=wrap;html=1;fillColor=none;dashed=1;dashPattern=8 8;" parent="1" vertex="1">
          <mxGeometry x="30" y="485" width="660" height="200" as="geometry" />
        </mxCell>
        <mxCell id="dhNzyn-oJjsVX0k7gvtm-37" value="" style="edgeStyle=orthogonalEdgeStyle;rounded=0;orthogonalLoop=1;jettySize=auto;html=1;" edge="1" parent="1" source="dhNzyn-oJjsVX0k7gvtm-38" target="dhNzyn-oJjsVX0k7gvtm-55">
          <mxGeometry relative="1" as="geometry" />
        </mxCell>
        <mxCell id="dhNzyn-oJjsVX0k7gvtm-38" value="LFSR" style="rounded=0;whiteSpace=wrap;html=1;" vertex="1" parent="1">
          <mxGeometry x="56" y="230" width="70" height="40" as="geometry" />
        </mxCell>
        <mxCell id="dhNzyn-oJjsVX0k7gvtm-39" value="" style="edgeStyle=orthogonalEdgeStyle;rounded=0;orthogonalLoop=1;jettySize=auto;html=1;" edge="1" parent="1" source="dhNzyn-oJjsVX0k7gvtm-40" target="dhNzyn-oJjsVX0k7gvtm-61">
          <mxGeometry relative="1" as="geometry" />
        </mxCell>
        <mxCell id="dhNzyn-oJjsVX0k7gvtm-40" value="Training Bits" style="rounded=0;whiteSpace=wrap;html=1;" vertex="1" parent="1">
          <mxGeometry x="56" y="150" width="70" height="40" as="geometry" />
        </mxCell>
        <mxCell id="dhNzyn-oJjsVX0k7gvtm-41" value="Source Data" style="rounded=0;whiteSpace=wrap;html=1;" vertex="1" parent="1">
          <mxGeometry x="56" y="70" width="70" height="40" as="geometry" />
        </mxCell>
        <mxCell id="dhNzyn-oJjsVX0k7gvtm-42" value="" style="edgeStyle=orthogonalEdgeStyle;rounded=0;orthogonalLoop=1;jettySize=auto;html=1;startArrow=classic;startFill=1;endArrow=none;endFill=0;" edge="1" parent="1" source="dhNzyn-oJjsVX0k7gvtm-44" target="dhNzyn-oJjsVX0k7gvtm-41">
          <mxGeometry relative="1" as="geometry" />
        </mxCell>
        <mxCell id="dhNzyn-oJjsVX0k7gvtm-43" value="" style="edgeStyle=orthogonalEdgeStyle;rounded=0;orthogonalLoop=1;jettySize=auto;html=1;" edge="1" parent="1" source="dhNzyn-oJjsVX0k7gvtm-44" target="dhNzyn-oJjsVX0k7gvtm-47">
          <mxGeometry relative="1" as="geometry" />
        </mxCell>
        <mxCell id="dhNzyn-oJjsVX0k7gvtm-44" value="QPSK Map" style="rounded=0;whiteSpace=wrap;html=1;" vertex="1" parent="1">
          <mxGeometry x="146" y="70" width="70" height="40" as="geometry" />
        </mxCell>
        <mxCell id="dhNzyn-oJjsVX0k7gvtm-45" value="Preamble" style="text;html=1;align=center;verticalAlign=middle;resizable=0;points=[];autosize=1;strokeColor=none;fillColor=none;" vertex="1" parent="1">
          <mxGeometry x="56" y="270" width="70" height="30" as="geometry" />
        </mxCell>
        <mxCell id="dhNzyn-oJjsVX0k7gvtm-46" value="" style="edgeStyle=orthogonalEdgeStyle;rounded=0;orthogonalLoop=1;jettySize=auto;html=1;" edge="1" parent="1" source="dhNzyn-oJjsVX0k7gvtm-47" target="dhNzyn-oJjsVX0k7gvtm-49">
          <mxGeometry relative="1" as="geometry" />
        </mxCell>
        <mxCell id="dhNzyn-oJjsVX0k7gvtm-47" value="Reshape to &amp;nbsp; &amp;nbsp; &amp;nbsp;N_Carr x N_OFDM" style="rounded=0;whiteSpace=wrap;html=1;" vertex="1" parent="1">
          <mxGeometry x="236" y="70" width="120" height="40" as="geometry" />
        </mxCell>
        <mxCell id="dhNzyn-oJjsVX0k7gvtm-48" value="" style="edgeStyle=orthogonalEdgeStyle;rounded=0;orthogonalLoop=1;jettySize=auto;html=1;" edge="1" parent="1" source="dhNzyn-oJjsVX0k7gvtm-49" target="dhNzyn-oJjsVX0k7gvtm-51">
          <mxGeometry relative="1" as="geometry" />
        </mxCell>
        <mxCell id="dhNzyn-oJjsVX0k7gvtm-49" value="OSIFFT" style="rounded=0;whiteSpace=wrap;html=1;" vertex="1" parent="1">
          <mxGeometry x="376" y="70" width="70" height="40" as="geometry" />
        </mxCell>
        <mxCell id="dhNzyn-oJjsVX0k7gvtm-50" value="" style="edgeStyle=orthogonalEdgeStyle;rounded=0;orthogonalLoop=1;jettySize=auto;html=1;" edge="1" parent="1" source="dhNzyn-oJjsVX0k7gvtm-51" target="dhNzyn-oJjsVX0k7gvtm-53">
          <mxGeometry relative="1" as="geometry" />
        </mxCell>
        <mxCell id="dhNzyn-oJjsVX0k7gvtm-51" value="Insert CP" style="rounded=0;whiteSpace=wrap;html=1;" vertex="1" parent="1">
          <mxGeometry x="476" y="70" width="70" height="40" as="geometry" />
        </mxCell>
        <mxCell id="dhNzyn-oJjsVX0k7gvtm-52" style="edgeStyle=orthogonalEdgeStyle;rounded=0;orthogonalLoop=1;jettySize=auto;html=1;exitX=1;exitY=0.5;exitDx=0;exitDy=0;entryX=0.75;entryY=0;entryDx=0;entryDy=0;" edge="1" parent="1" source="dhNzyn-oJjsVX0k7gvtm-53" target="dhNzyn-oJjsVX0k7gvtm-69">
          <mxGeometry relative="1" as="geometry" />
        </mxCell>
        <mxCell id="dhNzyn-oJjsVX0k7gvtm-53" value="Normalize" style="rounded=0;whiteSpace=wrap;html=1;" vertex="1" parent="1">
          <mxGeometry x="616" y="70" width="70" height="40" as="geometry" />
        </mxCell>
        <mxCell id="dhNzyn-oJjsVX0k7gvtm-54" value="" style="edgeStyle=orthogonalEdgeStyle;rounded=0;orthogonalLoop=1;jettySize=auto;html=1;" edge="1" parent="1" source="dhNzyn-oJjsVX0k7gvtm-55" target="dhNzyn-oJjsVX0k7gvtm-57">
          <mxGeometry relative="1" as="geometry" />
        </mxCell>
        <mxCell id="dhNzyn-oJjsVX0k7gvtm-55" value="BPSK Map" style="rounded=0;whiteSpace=wrap;html=1;" vertex="1" parent="1">
          <mxGeometry x="146" y="230" width="70" height="40" as="geometry" />
        </mxCell>
        <mxCell id="dhNzyn-oJjsVX0k7gvtm-56" value="" style="edgeStyle=orthogonalEdgeStyle;rounded=0;orthogonalLoop=1;jettySize=auto;html=1;" edge="1" parent="1" source="dhNzyn-oJjsVX0k7gvtm-57" target="dhNzyn-oJjsVX0k7gvtm-59">
          <mxGeometry relative="1" as="geometry" />
        </mxCell>
        <mxCell id="dhNzyn-oJjsVX0k7gvtm-57" value="Upsampling" style="rounded=0;whiteSpace=wrap;html=1;" vertex="1" parent="1">
          <mxGeometry x="376" y="230" width="70" height="40" as="geometry" />
        </mxCell>
        <mxCell id="dhNzyn-oJjsVX0k7gvtm-58" style="edgeStyle=orthogonalEdgeStyle;rounded=0;orthogonalLoop=1;jettySize=auto;html=1;exitX=1;exitY=0.5;exitDx=0;exitDy=0;entryX=0.25;entryY=0;entryDx=0;entryDy=0;" edge="1" parent="1" source="dhNzyn-oJjsVX0k7gvtm-59" target="dhNzyn-oJjsVX0k7gvtm-69">
          <mxGeometry relative="1" as="geometry" />
        </mxCell>
        <mxCell id="dhNzyn-oJjsVX0k7gvtm-59" value="Normalize" style="rounded=0;whiteSpace=wrap;html=1;" vertex="1" parent="1">
          <mxGeometry x="536" y="230" width="70" height="40" as="geometry" />
        </mxCell>
        <mxCell id="dhNzyn-oJjsVX0k7gvtm-60" value="" style="edgeStyle=orthogonalEdgeStyle;rounded=0;orthogonalLoop=1;jettySize=auto;html=1;" edge="1" parent="1" source="dhNzyn-oJjsVX0k7gvtm-61" target="dhNzyn-oJjsVX0k7gvtm-65">
          <mxGeometry relative="1" as="geometry" />
        </mxCell>
        <mxCell id="dhNzyn-oJjsVX0k7gvtm-61" value="BPSK Map" style="rounded=0;whiteSpace=wrap;html=1;" vertex="1" parent="1">
          <mxGeometry x="146" y="150" width="70" height="40" as="geometry" />
        </mxCell>
        <mxCell id="dhNzyn-oJjsVX0k7gvtm-62" style="edgeStyle=orthogonalEdgeStyle;rounded=0;orthogonalLoop=1;jettySize=auto;html=1;exitX=1;exitY=0.5;exitDx=0;exitDy=0;entryX=0.5;entryY=0;entryDx=0;entryDy=0;" edge="1" parent="1" source="dhNzyn-oJjsVX0k7gvtm-63" target="dhNzyn-oJjsVX0k7gvtm-69">
          <mxGeometry relative="1" as="geometry" />
        </mxCell>
        <mxCell id="dhNzyn-oJjsVX0k7gvtm-63" value="Normalize" style="rounded=0;whiteSpace=wrap;html=1;" vertex="1" parent="1">
          <mxGeometry x="576" y="150" width="70" height="40" as="geometry" />
        </mxCell>
        <mxCell id="dhNzyn-oJjsVX0k7gvtm-64" value="" style="edgeStyle=orthogonalEdgeStyle;rounded=0;orthogonalLoop=1;jettySize=auto;html=1;" edge="1" parent="1" source="dhNzyn-oJjsVX0k7gvtm-65" target="dhNzyn-oJjsVX0k7gvtm-67">
          <mxGeometry relative="1" as="geometry" />
        </mxCell>
        <mxCell id="dhNzyn-oJjsVX0k7gvtm-65" value="OSIFFT" style="rounded=0;whiteSpace=wrap;html=1;" vertex="1" parent="1">
          <mxGeometry x="376" y="150" width="70" height="40" as="geometry" />
        </mxCell>
        <mxCell id="dhNzyn-oJjsVX0k7gvtm-66" value="" style="edgeStyle=orthogonalEdgeStyle;rounded=0;orthogonalLoop=1;jettySize=auto;html=1;" edge="1" parent="1" source="dhNzyn-oJjsVX0k7gvtm-67" target="dhNzyn-oJjsVX0k7gvtm-63">
          <mxGeometry relative="1" as="geometry" />
        </mxCell>
        <mxCell id="dhNzyn-oJjsVX0k7gvtm-67" value="Insert CP" style="rounded=0;whiteSpace=wrap;html=1;" vertex="1" parent="1">
          <mxGeometry x="476" y="150" width="70" height="40" as="geometry" />
        </mxCell>
        <mxCell id="dhNzyn-oJjsVX0k7gvtm-68" style="edgeStyle=orthogonalEdgeStyle;rounded=0;orthogonalLoop=1;jettySize=auto;html=1;exitX=0.5;exitY=1;exitDx=0;exitDy=0;entryX=0.5;entryY=0;entryDx=0;entryDy=0;" edge="1" parent="1" source="dhNzyn-oJjsVX0k7gvtm-69" target="dhNzyn-oJjsVX0k7gvtm-72">
          <mxGeometry relative="1" as="geometry" />
        </mxCell>
        <mxCell id="dhNzyn-oJjsVX0k7gvtm-69" value="TX Signal&lt;br&gt;[Preamble, Training, Data]" style="whiteSpace=wrap;html=1;" vertex="1" parent="1">
          <mxGeometry x="596" y="300" width="150" height="60" as="geometry" />
        </mxCell>
        <mxCell id="dhNzyn-oJjsVX0k7gvtm-70" value="TX" style="text;html=1;align=center;verticalAlign=middle;resizable=0;points=[];autosize=1;strokeColor=none;fillColor=none;" vertex="1" parent="1">
          <mxGeometry x="46" y="20" width="40" height="30" as="geometry" />
        </mxCell>
        <mxCell id="dhNzyn-oJjsVX0k7gvtm-71" value="" style="rounded=0;whiteSpace=wrap;html=1;fillColor=none;dashed=1;dashPattern=8 8;" vertex="1" parent="1">
          <mxGeometry x="30" y="50" width="720" height="370" as="geometry" />
        </mxCell>
        <mxCell id="dhNzyn-oJjsVX0k7gvtm-72" value="Upconvert" style="rounded=0;whiteSpace=wrap;html=1;" vertex="1" parent="1">
          <mxGeometry x="636" y="380" width="70" height="40" as="geometry" />
        </mxCell>
      </root>
    </mxGraphModel>
  </diagram>
</mxfile>
